<svg id="visual" viewBox="0 0 200 200" width="200" height="200" xmlns="http://www.w3.org/2000/svg" xmlns:xlink="http://www.w3.org/1999/xlink" version="1.1"><g transform="translate(115.30641125030238 102.95897049253927)"><path d="M39.8 -59.5C47.5 -41 46.9 -24.6 49.4 -8.9C51.9 6.7 57.5 21.6 57 42.6C56.4 63.5 49.6 90.5 35.2 94.9C20.9 99.3 -1 81.1 -25.6 71.6C-50.2 62.1 -77.5 61.3 -85.2 48.8C-92.8 36.3 -80.9 12.1 -73.7 -10.3C-66.5 -32.6 -64.1 -53.1 -52.6 -70.9C-41.1 -88.7 -20.6 -103.8 -2.2 -101.2C16.1 -98.5 32.1 -78 39.8 -59.5" fill="#f3b87b"></path></g></svg>